<?xml version="1.0" encoding="utf-8"?>
<!-- Generator: Adobe Illustrator 24.1.0, SVG Export Plug-In . SVG Version: 6.00 Build 0)  -->
<svg version="1.1" id="Layer_1" xmlns="http://www.w3.org/2000/svg" xmlns:xlink="http://www.w3.org/1999/xlink" x="0px" y="0px"
	 viewBox="0 0 516 600" style="enable-background:new 0 0 516 600;" xml:space="preserve">
<style type="text/css">
	.st0{fill:#B8860B;}
	.st1{fill:#132B59;}
</style>
<g>
	<path class="st0" d="M343,513.8h-1c0,23.3-9.4,44.3-24.6,59.6C302.2,588.6,281.2,598,258,598s-44.2-9.4-59.4-24.6
		c-15.2-15.2-24.6-36.3-24.6-59.6c0-5.7,1.3-12.7,3.6-20.5s5.6-16.4,9.7-25.5c8-18.1,18.7-37.9,29.5-56.3
		c10.7-18.3,21.5-35.2,29.5-47.4c4-6.1,7.4-11.1,9.7-14.6c1.2-1.7,2.1-3.1,2.7-4l0.1-0.2l-0.8-0.6l-0.8,0.6l0.1,0.2
		c0.6,0.9,1.5,2.3,2.7,4c2.3,3.5,5.7,8.4,9.7,14.6c8,12.3,18.8,29.1,29.5,47.4s21.4,38.1,29.5,56.3c4,9.1,7.3,17.7,9.7,25.5
		c2.3,7.8,3.6,14.8,3.6,20.5L343,513.8l1,0c0-6-1.3-13.1-3.7-21c-2.3-7.9-5.7-16.6-9.7-25.8c-8.1-18.3-18.8-38.1-29.6-56.5
		c-10.8-18.4-21.5-35.2-29.6-47.5c-4-6.1-7.4-11.1-9.7-14.6c-1.2-1.7-2.1-3.1-2.7-4l-0.1-0.2L258,343l-1,1.4c-0.6,0.9-1.6,2.3-2.7,4
		c-2.4,3.5-5.7,8.5-9.7,14.6c-8.1,12.3-18.8,29.2-29.6,47.5c-10.8,18.4-21.5,38.2-29.6,56.5c-4,9.1-7.4,17.9-9.7,25.8
		s-3.7,15-3.7,21c0,47.7,38.6,86.2,86,86.2s86-38.5,86-86.2H343z"/>
	<path class="st1" d="M171,339.8h-1c0,23.3-9.4,44.3-24.6,59.6C130.2,414.6,109.2,424,86,424s-44.2-9.4-59.4-24.6
		C11.4,384.1,2,363.1,2,339.8c0-5.7,1.3-12.7,3.6-20.5s5.6-16.4,9.7-25.5c8-18.1,18.7-37.9,29.5-56.3c10.7-18.3,21.5-35.2,29.5-47.4
		c4-6.1,7.4-11.1,9.7-14.6c1.2-1.7,2.1-3.1,2.7-4l0.1-0.2l-0.8-0.6l-0.8,0.6l0.1,0.2l0,0c0.6,0.9,1.5,2.3,2.7,4
		c2.3,3.5,5.7,8.4,9.7,14.6c8,12.3,18.8,29.1,29.5,47.4s21.4,38.1,29.5,56.3c4,9.1,7.3,17.7,9.7,25.5c2.3,7.8,3.6,14.8,3.6,20.5
		L171,339.8l1,0c0-6-1.3-13.1-3.7-21c-2.3-7.9-5.7-16.6-9.7-25.8c-8.1-18.3-18.8-38.1-29.6-56.5s-21.5-35.2-29.6-47.5
		c-4-6.1-7.4-11.1-9.7-14.6c-1.2-1.7-2.1-3.1-2.7-4l0,0l-0.1-0.2L86,169l-1,1.4l0,0c-0.6,0.9-1.6,2.3-2.7,4
		c-2.4,3.5-5.7,8.5-9.7,14.6c-8.1,12.3-18.8,29.2-29.6,47.5c-10.8,18.4-21.5,38.2-29.6,56.5c-4,9.1-7.4,17.9-9.7,25.8
		s-3.7,15-3.7,21C0,387.5,38.6,426,86,426s86-38.5,86-86.2H171z"/>
	<path class="st1" d="M343,170.8c0,47.1-38.1,85.2-85,85.2s-85-38.1-85-85.2c0-11.7,5.3-28.2,13.4-46.4c8-18.2,18.8-38,29.5-56.4
		c10.7-18.3,21.5-35.2,29.5-47.5c4-6.1,7.4-11.1,9.7-14.6c1.2-1.7,2.1-3.1,2.7-4l0.1-0.2l0.1,0.2c0.6,0.9,1.6,2.3,2.7,4
		c2.3,3.5,5.7,8.4,9.7,14.6c8.1,12.3,18.8,29.1,29.5,47.5c10.7,18.3,21.5,38.2,29.5,56.4C337.7,142.6,343,159.1,343,170.8z"/>
	<path class="st0" d="M343,170.8h-1c0,23.3-9.4,44.3-24.6,59.6C302.2,245.6,281.2,255,258,255s-44.2-9.4-59.4-24.6
		c-15.2-15.2-24.6-36.3-24.6-59.6c0-5.7,1.3-12.7,3.6-20.5s5.6-16.4,9.7-25.5c8-18.1,18.7-37.9,29.5-56.3
		c10.7-18.3,21.5-35.2,29.5-47.4c4-6.1,7.4-11.1,9.7-14.6c1.2-1.7,2.1-3.1,2.7-4l0.1-0.2L258,1.8l-0.8,0.6l0.1,0.2
		c0.6,0.9,1.5,2.3,2.7,4c2.3,3.5,5.7,8.4,9.7,14.6c8,12.3,18.8,29.1,29.5,47.4s21.4,38.1,29.5,56.3c4,9.1,7.3,17.7,9.7,25.5
		c2.3,7.8,3.6,14.8,3.6,20.5h1h1c0-6-1.3-13.1-3.7-21c-2.3-7.9-5.7-16.6-9.7-25.8c-8.1-18.3-18.8-38.1-29.6-56.5
		c-10.8-18.4-21.5-35.2-29.6-47.5c-4-6.1-7.4-11.1-9.7-14.6c-1.2-1.7-2.1-3.1-2.7-4l-0.1-0.2L258,0l-1,1.4c-0.6,0.9-1.6,2.3-2.7,4
		c-2.4,3.5-5.7,8.5-9.7,14.6c-8.1,12.3-18.8,29.2-29.6,47.5c-10.8,18.4-21.5,38.2-29.6,56.5c-4,9.1-7.4,17.9-9.7,25.8
		c-2.3,7.9-3.7,15-3.7,21c0,47.7,38.6,86.2,86,86.2s86-38.5,86-86.2H343z"/>
</g>
</svg>
