<?xml version="1.0" encoding="utf-8"?>
<!-- Generator: Adobe Illustrator 24.1.0, SVG Export Plug-In . SVG Version: 6.00 Build 0)  -->
<svg version="1.1" id="Layer_1" xmlns="http://www.w3.org/2000/svg" xmlns:xlink="http://www.w3.org/1999/xlink" x="0px" y="0px"
	 viewBox="0 0 559.3 173.8" style="enable-background:new 0 0 559.3 173.8;" xml:space="preserve">
<style type="text/css">
	.st0{fill:none;}
	.st1{fill:#132B59;}
</style>
<g>
	<g>
		<path class="st0" d="M169.2,86.9c0-22.8-9.2-43.3-24.1-58.3C130.2,13.7,109.6,4.5,86.9,4.5c-22.8,0-43.3,9.2-58.3,24.1
			C13.7,43.5,4.5,64.1,4.5,86.9c0,17.8,5.7,34.3,15.2,47.7H154C163.6,121.1,169.2,104.7,169.2,86.9z"/>
		<path class="st1" d="M151.7,143.9c0.4-0.4,0.8-0.9,1.1-1.3c0.4-0.5,0.8-1,1.2-1.5c0.4-0.5,0.8-1,1.1-1.5c0.6-0.7,1.1-1.5,1.7-2.2
			c0.3-0.4,0.6-0.8,0.9-1.3c0.4-0.5,0.7-1,1.1-1.6c0,0,0,0,0,0h0c9.1-13.7,14.4-30.1,14.4-47.7c0-47.7-38.7-86.4-86.4-86.4
			C39.1,0.5,0.5,39.2,0.5,86.9c0,17.6,5.3,34,14.4,47.7h0c0,0,0,0,0,0c0.4,0.5,0.7,1.1,1.1,1.6c0.3,0.4,0.6,0.8,0.9,1.3
			c0.5,0.8,1.1,1.5,1.7,2.2c0.4,0.5,0.7,1,1.1,1.4c0.4,0.5,0.8,1,1.2,1.5c0.4,0.4,0.7,0.9,1.1,1.3c0.6,0.7,1.2,1.4,1.9,2.1
			c0.4,0.4,0.8,0.9,1.2,1.3c0.4,0.4,0.8,0.9,1.3,1.3c0.7,0.7,1.3,1.3,2,1.9c0.4,0.4,0.9,0.8,1.3,1.1c0.5,0.4,1,0.8,1.4,1.3
			c0.4,0.3,0.8,0.7,1.2,1c0.8,0.6,1.6,1.2,2.3,1.8c0.4,0.3,0.8,0.6,1.2,0.9c0.6,0.5,1.2,0.9,1.9,1.3c0.5,0.3,0.9,0.7,1.4,1
			c0.7,0.5,1.5,1,2.2,1.4c0.4,0.2,0.8,0.5,1.2,0.7c0.9,0.6,1.9,1.1,2.8,1.6c0.3,0.2,0.6,0.3,0.9,0.5c0.8,0.4,1.6,0.8,2.4,1.2
			c0.3,0.2,0.7,0.3,1,0.5c1,0.5,2,0.9,3.1,1.4c0.3,0.1,0.7,0.3,1,0.4c0.9,0.4,1.9,0.8,2.8,1.1c0.2,0.1,0.5,0.2,0.7,0.3
			c1.1,0.4,2.2,0.8,3.4,1.1c0.3,0.1,0.6,0.2,1,0.3c1.2,0.4,2.3,0.7,3.5,1c0.1,0,0.3,0.1,0.4,0.1c1.1,0.3,2.2,0.5,3.3,0.8
			c0.3,0.1,0.6,0.1,0.8,0.2c1.2,0.2,2.4,0.5,3.7,0.7c0.2,0,0.5,0.1,0.7,0.1c1.1,0.2,2.3,0.3,3.4,0.4c0.2,0,0.4,0,0.6,0.1
			c1.3,0.1,2.5,0.2,3.8,0.3c0.3,0,0.6,0,0.9,0c1.3,0.1,2.6,0.1,4,0.1c1.3,0,2.7,0,4-0.1c0.3,0,0.6,0,0.9,0c1.3-0.1,2.6-0.2,3.8-0.3
			c0.2,0,0.4,0,0.6-0.1c1.1-0.1,2.3-0.3,3.4-0.4c0.2,0,0.5-0.1,0.7-0.1c1.2-0.2,2.5-0.4,3.7-0.7c0.3-0.1,0.6-0.1,0.8-0.2
			c1.1-0.2,2.2-0.5,3.3-0.8c0.1,0,0.3-0.1,0.4-0.1c1.2-0.3,2.4-0.6,3.5-1c0.3-0.1,0.6-0.2,1-0.3c1.1-0.4,2.3-0.7,3.4-1.1
			c0.2-0.1,0.5-0.2,0.7-0.3c0.9-0.4,1.9-0.7,2.8-1.1c0.3-0.1,0.7-0.3,1-0.4c1-0.4,2.1-0.9,3.1-1.4c0.3-0.2,0.7-0.3,1-0.5
			c0.8-0.4,1.6-0.8,2.4-1.2c0.3-0.2,0.6-0.3,0.9-0.5c0.9-0.5,1.9-1.1,2.8-1.6c0.4-0.2,0.8-0.5,1.2-0.7c0.8-0.5,1.5-0.9,2.2-1.4
			c0.5-0.3,0.9-0.6,1.4-1c0.6-0.4,1.3-0.9,1.9-1.3c0.4-0.3,0.8-0.6,1.2-0.9c0.8-0.6,1.6-1.2,2.4-1.8c0.4-0.3,0.8-0.7,1.2-1
			c0.5-0.4,1-0.8,1.5-1.3c0.4-0.4,0.8-0.7,1.3-1.1c0.7-0.6,1.4-1.3,2-2c0.4-0.4,0.8-0.8,1.3-1.3c0.4-0.4,0.8-0.8,1.2-1.3
			C150.5,145.3,151.1,144.6,151.7,143.9z M4.5,86.9c0-22.8,9.2-43.3,24.1-58.3C43.5,13.7,64.1,4.5,86.9,4.5
			c22.8,0,43.3,9.2,58.3,24.1c14.9,14.9,24.1,35.5,24.1,58.3c0,17.8-5.7,34.3-15.2,47.7H19.7C10.1,121.1,4.5,104.7,4.5,86.9z"/>
	</g>
	<g>
		<path class="st0" d="M337.9,28.6C323,13.7,302.4,4.5,279.6,4.5c-22.8,0-43.3,9.2-58.3,24.1c-14.6,14.6-23.7,34.5-24.1,56.6H362
			C361.5,63.1,352.4,43.2,337.9,28.6z"/>
		<path class="st1" d="M279.6,0.5c-47.2,0-85.5,37.8-86.3,84.7h0c0,0.5,0,1.1,0,1.6c0,47.7,38.7,86.4,86.4,86.4S366,134.6,366,86.9
			C366,39.2,327.3,0.5,279.6,0.5z M221.4,28.6c14.9-14.9,35.5-24.1,58.3-24.1c22.8,0,43.3,9.2,58.3,24.1
			c14.6,14.6,23.7,34.5,24.1,56.6H197.3C197.7,63.1,206.8,43.2,221.4,28.6z"/>
	</g>
	<g>
		<path class="st0" d="M530.7,28.6c-14.9-14.9-35.5-24.1-58.3-24.1c-22.8,0-43.3,9.2-58.3,24.1c-2.3,2.3-4.4,4.7-6.4,7.2h129.3
			C535.1,33.3,532.9,30.9,530.7,28.6z"/>
		<path class="st1" d="M558.7,82.8c0-0.4-0.1-0.9-0.1-1.3c-0.1-0.9-0.1-1.9-0.2-2.8c0-0.5-0.1-1-0.1-1.4c-0.1-0.9-0.2-1.8-0.3-2.6
			c-0.1-0.5-0.1-0.9-0.2-1.4c-0.2-1.1-0.4-2.2-0.6-3.3c-0.1-0.4-0.2-0.8-0.2-1.1c-0.2-1-0.5-2.1-0.7-3.1c-0.1-0.5-0.3-1.1-0.4-1.6
			c-0.2-0.7-0.4-1.4-0.6-2.1c-0.2-0.6-0.4-1.2-0.6-1.8c-0.2-0.6-0.4-1.2-0.6-1.8c-0.2-0.6-0.4-1.2-0.7-1.8c-0.2-0.6-0.4-1.1-0.6-1.6
			c-0.5-1.3-1-2.5-1.6-3.8c-0.2-0.4-0.3-0.8-0.5-1.2c-0.3-0.7-0.7-1.4-1.1-2.1c-0.2-0.4-0.4-0.8-0.6-1.2c-0.4-0.7-0.8-1.4-1.2-2.1
			c-0.2-0.3-0.4-0.7-0.6-1c-0.4-0.7-0.9-1.5-1.3-2.2c-0.1-0.1-0.1-0.2-0.2-0.3c-1.1-1.8-2.3-3.5-3.5-5.2c0,0,0,0,0-0.1h0
			C526.4,14.4,501,0.5,472.4,0.5c-28.6,0-54,13.9-69.7,35.4h0c0,0,0,0,0,0c-1.2,1.7-2.4,3.5-3.6,5.3c-0.1,0.1-0.1,0.2-0.2,0.2
			c-0.5,0.7-0.9,1.5-1.3,2.2c-0.2,0.3-0.4,0.7-0.6,1c-0.4,0.7-0.8,1.4-1.2,2.1c-0.2,0.4-0.4,0.8-0.6,1.1c-0.4,0.7-0.7,1.4-1.1,2.1
			c-0.2,0.4-0.3,0.8-0.5,1.1c-0.6,1.2-1.1,2.5-1.6,3.8c-0.2,0.5-0.4,1.1-0.6,1.6c-0.2,0.6-0.4,1.2-0.7,1.8c-0.2,0.6-0.4,1.2-0.6,1.8
			c-0.2,0.6-0.4,1.2-0.6,1.8c-0.2,0.7-0.4,1.4-0.6,2.1c-0.1,0.5-0.3,1.1-0.4,1.6c-0.3,1-0.5,2-0.7,3.1c-0.1,0.4-0.2,0.8-0.2,1.2
			c-0.2,1.1-0.4,2.2-0.6,3.3c-0.1,0.5-0.1,0.9-0.2,1.4c-0.1,0.9-0.2,1.8-0.3,2.6c-0.1,0.5-0.1,1-0.1,1.4c-0.1,0.9-0.2,1.8-0.2,2.8
			c0,0.4-0.1,0.9-0.1,1.3c-0.1,1.3-0.1,2.7-0.1,4.1c0,47.7,38.7,86.4,86.4,86.4s86.4-38.7,86.4-86.4
			C558.8,85.5,558.7,84.2,558.7,82.8z M414.1,28.6c14.9-14.9,35.5-24.1,58.3-24.1c22.8,0,43.3,9.2,58.3,24.1
			c2.3,2.3,4.4,4.7,6.4,7.2H407.7C409.7,33.3,411.9,30.9,414.1,28.6z"/>
	</g>
</g>
</svg>
